<mxfile host="app.diagrams.net" modified="2023-10-09T13:33:28.853Z" agent="Mozilla/5.0 (Windows NT 10.0; Win64; x64) AppleWebKit/537.36 (KHTML, like Gecko) Chrome/117.0.0.0 Safari/537.36" etag="rjXAqO8DOF0WcctfU3DL" version="22.0.4" type="github">
  <diagram name="Page-1" id="pI0M6m7AJl1jRwxsAtY1">
    <mxGraphModel dx="1500" dy="827" grid="1" gridSize="10" guides="1" tooltips="1" connect="1" arrows="1" fold="1" page="1" pageScale="1" pageWidth="850" pageHeight="1100" math="0" shadow="0">
      <root>
        <mxCell id="0" />
        <mxCell id="1" parent="0" />
        <mxCell id="ZsxanYGdb544QXRvj6cb-6" value="" style="edgeStyle=orthogonalEdgeStyle;rounded=0;orthogonalLoop=1;jettySize=auto;html=1;" edge="1" parent="1" source="ZsxanYGdb544QXRvj6cb-1" target="ZsxanYGdb544QXRvj6cb-2">
          <mxGeometry relative="1" as="geometry" />
        </mxCell>
        <mxCell id="ZsxanYGdb544QXRvj6cb-1" value="USER" style="ellipse;whiteSpace=wrap;html=1;aspect=fixed;" vertex="1" parent="1">
          <mxGeometry x="20" y="170" width="80" height="80" as="geometry" />
        </mxCell>
        <mxCell id="ZsxanYGdb544QXRvj6cb-7" value="" style="edgeStyle=orthogonalEdgeStyle;rounded=0;orthogonalLoop=1;jettySize=auto;html=1;" edge="1" parent="1" source="ZsxanYGdb544QXRvj6cb-2" target="ZsxanYGdb544QXRvj6cb-3">
          <mxGeometry relative="1" as="geometry" />
        </mxCell>
        <mxCell id="ZsxanYGdb544QXRvj6cb-2" value="Client API" style="rounded=0;whiteSpace=wrap;html=1;" vertex="1" parent="1">
          <mxGeometry x="180" y="180" width="120" height="60" as="geometry" />
        </mxCell>
        <mxCell id="ZsxanYGdb544QXRvj6cb-8" value="" style="edgeStyle=orthogonalEdgeStyle;rounded=0;orthogonalLoop=1;jettySize=auto;html=1;" edge="1" parent="1" source="ZsxanYGdb544QXRvj6cb-3" target="ZsxanYGdb544QXRvj6cb-5">
          <mxGeometry relative="1" as="geometry" />
        </mxCell>
        <mxCell id="ZsxanYGdb544QXRvj6cb-9" value="" style="edgeStyle=orthogonalEdgeStyle;rounded=0;orthogonalLoop=1;jettySize=auto;html=1;" edge="1" parent="1" source="ZsxanYGdb544QXRvj6cb-3" target="ZsxanYGdb544QXRvj6cb-4">
          <mxGeometry relative="1" as="geometry" />
        </mxCell>
        <mxCell id="ZsxanYGdb544QXRvj6cb-16" style="edgeStyle=orthogonalEdgeStyle;rounded=0;orthogonalLoop=1;jettySize=auto;html=1;exitX=0.25;exitY=1;exitDx=0;exitDy=0;entryX=0.75;entryY=1;entryDx=0;entryDy=0;" edge="1" parent="1" source="ZsxanYGdb544QXRvj6cb-3" target="ZsxanYGdb544QXRvj6cb-2">
          <mxGeometry relative="1" as="geometry" />
        </mxCell>
        <mxCell id="ZsxanYGdb544QXRvj6cb-3" value="API Service" style="rounded=0;whiteSpace=wrap;html=1;" vertex="1" parent="1">
          <mxGeometry x="425" y="180" width="120" height="60" as="geometry" />
        </mxCell>
        <mxCell id="ZsxanYGdb544QXRvj6cb-4" value="Lanh Chain&lt;br&gt;Model" style="rounded=0;whiteSpace=wrap;html=1;" vertex="1" parent="1">
          <mxGeometry x="425" y="70" width="120" height="60" as="geometry" />
        </mxCell>
        <mxCell id="ZsxanYGdb544QXRvj6cb-11" value="" style="edgeStyle=orthogonalEdgeStyle;rounded=0;orthogonalLoop=1;jettySize=auto;html=1;entryX=1;entryY=0.5;entryDx=0;entryDy=0;" edge="1" parent="1" source="ZsxanYGdb544QXRvj6cb-5" target="ZsxanYGdb544QXRvj6cb-4">
          <mxGeometry relative="1" as="geometry">
            <mxPoint x="645" y="320" as="targetPoint" />
            <Array as="points">
              <mxPoint x="660" y="320" />
              <mxPoint x="660" y="100" />
            </Array>
          </mxGeometry>
        </mxCell>
        <mxCell id="ZsxanYGdb544QXRvj6cb-14" value="" style="edgeStyle=orthogonalEdgeStyle;rounded=0;orthogonalLoop=1;jettySize=auto;html=1;entryX=0.5;entryY=1;entryDx=0;entryDy=0;" edge="1" parent="1" source="ZsxanYGdb544QXRvj6cb-5" target="ZsxanYGdb544QXRvj6cb-2">
          <mxGeometry relative="1" as="geometry">
            <mxPoint x="325" y="320" as="targetPoint" />
          </mxGeometry>
        </mxCell>
        <mxCell id="ZsxanYGdb544QXRvj6cb-5" value="Store Vector DB" style="rounded=0;whiteSpace=wrap;html=1;" vertex="1" parent="1">
          <mxGeometry x="425" y="290" width="120" height="60" as="geometry" />
        </mxCell>
        <mxCell id="ZsxanYGdb544QXRvj6cb-12" value="PDF/DOC" style="text;html=1;align=center;verticalAlign=middle;resizable=0;points=[];autosize=1;strokeColor=none;fillColor=none;" vertex="1" parent="1">
          <mxGeometry x="95" y="170" width="80" height="30" as="geometry" />
        </mxCell>
        <mxCell id="ZsxanYGdb544QXRvj6cb-15" value="Resopnse" style="text;html=1;align=center;verticalAlign=middle;resizable=0;points=[];autosize=1;strokeColor=none;fillColor=none;" vertex="1" parent="1">
          <mxGeometry x="290" y="328" width="80" height="30" as="geometry" />
        </mxCell>
        <mxCell id="ZsxanYGdb544QXRvj6cb-17" value="Query Request" style="text;html=1;align=center;verticalAlign=middle;resizable=0;points=[];autosize=1;strokeColor=none;fillColor=none;" vertex="1" parent="1">
          <mxGeometry x="310" y="258" width="100" height="30" as="geometry" />
        </mxCell>
        <mxCell id="ZsxanYGdb544QXRvj6cb-18" value="PDF" style="text;html=1;align=center;verticalAlign=middle;resizable=0;points=[];autosize=1;strokeColor=none;fillColor=none;" vertex="1" parent="1">
          <mxGeometry x="495" y="138" width="50" height="30" as="geometry" />
        </mxCell>
        <mxCell id="ZsxanYGdb544QXRvj6cb-19" value="Resolve" style="text;html=1;align=center;verticalAlign=middle;resizable=0;points=[];autosize=1;strokeColor=none;fillColor=none;" vertex="1" parent="1">
          <mxGeometry x="495" y="250" width="70" height="30" as="geometry" />
        </mxCell>
        <mxCell id="ZsxanYGdb544QXRvj6cb-20" value="Talk to expert&amp;nbsp;" style="text;html=1;align=center;verticalAlign=middle;resizable=0;points=[];autosize=1;strokeColor=none;fillColor=none;" vertex="1" parent="1">
          <mxGeometry x="10" y="78" width="100" height="30" as="geometry" />
        </mxCell>
        <mxCell id="ZsxanYGdb544QXRvj6cb-27" style="edgeStyle=orthogonalEdgeStyle;rounded=0;orthogonalLoop=1;jettySize=auto;html=1;exitX=1;exitY=0.25;exitDx=0;exitDy=0;entryX=0;entryY=0.25;entryDx=0;entryDy=0;" edge="1" parent="1" source="ZsxanYGdb544QXRvj6cb-22" target="ZsxanYGdb544QXRvj6cb-23">
          <mxGeometry relative="1" as="geometry" />
        </mxCell>
        <mxCell id="ZsxanYGdb544QXRvj6cb-22" value="Client API" style="rounded=0;whiteSpace=wrap;html=1;" vertex="1" parent="1">
          <mxGeometry x="75" y="460" width="120" height="60" as="geometry" />
        </mxCell>
        <mxCell id="ZsxanYGdb544QXRvj6cb-28" style="edgeStyle=orthogonalEdgeStyle;rounded=0;orthogonalLoop=1;jettySize=auto;html=1;exitX=0;exitY=0.75;exitDx=0;exitDy=0;entryX=1;entryY=0.75;entryDx=0;entryDy=0;" edge="1" parent="1" source="ZsxanYGdb544QXRvj6cb-23" target="ZsxanYGdb544QXRvj6cb-22">
          <mxGeometry relative="1" as="geometry" />
        </mxCell>
        <mxCell id="ZsxanYGdb544QXRvj6cb-31" style="edgeStyle=orthogonalEdgeStyle;rounded=0;orthogonalLoop=1;jettySize=auto;html=1;exitX=0.25;exitY=1;exitDx=0;exitDy=0;entryX=0;entryY=0.5;entryDx=0;entryDy=0;" edge="1" parent="1" source="ZsxanYGdb544QXRvj6cb-23" target="ZsxanYGdb544QXRvj6cb-24">
          <mxGeometry relative="1" as="geometry" />
        </mxCell>
        <mxCell id="ZsxanYGdb544QXRvj6cb-38" style="edgeStyle=orthogonalEdgeStyle;rounded=0;orthogonalLoop=1;jettySize=auto;html=1;" edge="1" parent="1" source="ZsxanYGdb544QXRvj6cb-23" target="ZsxanYGdb544QXRvj6cb-37">
          <mxGeometry relative="1" as="geometry" />
        </mxCell>
        <mxCell id="ZsxanYGdb544QXRvj6cb-23" value="API SERVICE" style="rounded=0;whiteSpace=wrap;html=1;" vertex="1" parent="1">
          <mxGeometry x="340" y="460" width="120" height="60" as="geometry" />
        </mxCell>
        <mxCell id="ZsxanYGdb544QXRvj6cb-33" style="edgeStyle=orthogonalEdgeStyle;rounded=0;orthogonalLoop=1;jettySize=auto;html=1;exitX=1;exitY=0;exitDx=0;exitDy=0;entryX=0.75;entryY=1;entryDx=0;entryDy=0;" edge="1" parent="1" source="ZsxanYGdb544QXRvj6cb-24" target="ZsxanYGdb544QXRvj6cb-23">
          <mxGeometry relative="1" as="geometry" />
        </mxCell>
        <mxCell id="ZsxanYGdb544QXRvj6cb-24" value="OPEN AI&amp;nbsp;&lt;br&gt;Service" style="ellipse;whiteSpace=wrap;html=1;aspect=fixed;" vertex="1" parent="1">
          <mxGeometry x="360" y="610" width="80" height="80" as="geometry" />
        </mxCell>
        <mxCell id="ZsxanYGdb544QXRvj6cb-29" value="Exam Promt&lt;br&gt;" style="text;html=1;align=center;verticalAlign=middle;resizable=0;points=[];autosize=1;strokeColor=none;fillColor=none;" vertex="1" parent="1">
          <mxGeometry x="195" y="448" width="90" height="30" as="geometry" />
        </mxCell>
        <mxCell id="ZsxanYGdb544QXRvj6cb-30" value="Response" style="text;html=1;align=center;verticalAlign=middle;resizable=0;points=[];autosize=1;strokeColor=none;fillColor=none;" vertex="1" parent="1">
          <mxGeometry x="210" y="508" width="80" height="30" as="geometry" />
        </mxCell>
        <mxCell id="ZsxanYGdb544QXRvj6cb-34" value="Exam created Response" style="text;html=1;align=center;verticalAlign=middle;resizable=0;points=[];autosize=1;strokeColor=none;fillColor=none;" vertex="1" parent="1">
          <mxGeometry x="440" y="550" width="150" height="30" as="geometry" />
        </mxCell>
        <mxCell id="ZsxanYGdb544QXRvj6cb-35" value="Reqiuest&lt;br&gt;" style="text;html=1;align=center;verticalAlign=middle;resizable=0;points=[];autosize=1;strokeColor=none;fillColor=none;" vertex="1" parent="1">
          <mxGeometry x="260" y="580" width="70" height="30" as="geometry" />
        </mxCell>
        <mxCell id="ZsxanYGdb544QXRvj6cb-37" value="" style="shape=cylinder3;whiteSpace=wrap;html=1;boundedLbl=1;backgroundOutline=1;size=15;" vertex="1" parent="1">
          <mxGeometry x="640" y="448" width="60" height="80" as="geometry" />
        </mxCell>
        <mxCell id="ZsxanYGdb544QXRvj6cb-39" value="Store DB" style="text;html=1;align=center;verticalAlign=middle;resizable=0;points=[];autosize=1;strokeColor=none;fillColor=none;" vertex="1" parent="1">
          <mxGeometry x="700" y="473" width="70" height="30" as="geometry" />
        </mxCell>
      </root>
    </mxGraphModel>
  </diagram>
</mxfile>
